<?xml version="1.0" standalone="no"?>
<!DOCTYPE svg PUBLIC "-//W3C//DTD SVG 20010904//EN"
 "http://www.w3.org/TR/2001/REC-SVG-20010904/DTD/svg10.dtd">
<svg version="1.0" xmlns="http://www.w3.org/2000/svg"
 width="16.000000pt" height="16.000000pt" viewBox="0 0 16.000000 16.000000"
 preserveAspectRatio="xMidYMid meet">
<metadata>
Created by potrace 1.11, written by Peter Selinger 2001-2013
</metadata>
<g transform="translate(0.000000,16.000000) scale(0.000847,-0.000847)"
fill="#000000" stroke="none">
<path d="M9500 15606 l0 -486 83 -1 c45 -1 100 -3 122 -5 22 -1 94 -5 160 -8
66 -4 143 -9 170 -12 495 -52 843 -126 1270 -268 569 -190 1077 -455 1565
-814 386 -285 749 -633 1039 -997 53 -66 98 -122 101 -125 3 -3 49 -66 102
-140 344 -482 616 -1029 796 -1600 39 -123 124 -457 138 -540 2 -14 11 -56 19
-95 18 -88 53 -321 60 -406 4 -35 8 -69 10 -76 2 -6 7 -71 11 -145 4 -73 8
-140 10 -148 1 -8 3 -72 3 -142 l1 -128 471 0 472 0 -7 218 c-3 119 -8 228
-10 242 -2 14 -7 61 -10 105 -16 206 -60 505 -110 755 -84 412 -226 864 -401
1275 -100 233 -298 622 -391 765 -42 67 -47 74 -68 111 -21 37 -228 349 -250
377 -8 9 -61 80 -119 157 -163 218 -341 421 -581 661 -257 257 -350 340 -656
582 -77 62 -302 221 -420 297 -245 159 -434 266 -685 389 -218 107 -270 130
-470 211 -451 182 -929 316 -1400 390 -136 22 -143 23 -200 29 -27 4 -61 8
-75 11 -14 2 -52 7 -85 10 -33 3 -82 7 -110 10 -96 10 -182 15 -367 21 l-188
7 0 -487z"/>
<path d="M8080 15955 c-186 -40 -392 -93 -579 -150 -186 -57 -388 -128 -401
-142 -5 -4 83 -402 194 -883 l202 -875 -25 -16 c-14 -9 -208 -128 -431 -266
-223 -137 -414 -255 -426 -262 -18 -12 -79 33 -758 558 -688 532 -739 570
-758 557 -54 -38 -362 -332 -482 -461 -146 -156 -326 -363 -326 -375 0 -4 273
-299 606 -656 333 -357 608 -654 611 -661 2 -6 -107 -219 -244 -472 -199 -370
-252 -461 -268 -461 -11 0 -417 54 -903 120 -485 66 -893 120 -907 120 -22 0
-27 -10 -59 -109 -20 -60 -56 -179 -80 -265 -81 -281 -179 -757 -161 -775 6
-5 390 -125 855 -267 465 -141 847 -258 848 -260 6 -4 35 -1054 30 -1060 -3
-2 -385 -160 -849 -350 -464 -190 -847 -349 -850 -352 -8 -8 27 -181 76 -377
83 -334 228 -765 256 -765 10 0 398 88 862 195 465 107 850 195 855 195 10 0
554 -876 556 -895 1 -7 -246 -332 -549 -724 -302 -391 -551 -718 -553 -726 -9
-41 444 -497 751 -755 l97 -83 58 54 c31 30 322 301 645 603 l588 548 461
-248 c253 -137 463 -255 465 -262 3 -7 -49 -412 -115 -900 -103 -755 -119
-889 -107 -898 21 -15 352 -117 535 -163 169 -43 474 -107 561 -117 l55 -6
254 831 c139 458 257 834 261 837 11 6 1049 37 1055 32 2 -3 157 -377 343
-832 186 -455 341 -830 345 -833 8 -8 226 37 441 92 201 52 415 117 590 181
100 37 125 50 121 63 -10 32 -386 1666 -386 1677 0 6 21 24 48 40 26 17 228
141 448 277 l402 248 711 -551 c391 -302 715 -550 719 -550 17 0 222 189 402
369 179 180 430 461 430 481 0 5 -264 292 -586 637 -322 346 -588 633 -590
639 -3 5 106 215 241 465 134 249 246 458 248 463 2 5 401 -45 902 -113 715
-97 900 -119 907 -109 13 20 113 337 153 483 59 219 150 653 140 664 -3 2
-363 113 -801 247 l-797 244 -531 0 -532 0 -23 -127 c-187 -1036 -799 -1967
-1681 -2558 -276 -184 -524 -312 -823 -424 -778 -291 -1662 -326 -2464 -96
-1314 378 -2341 1409 -2713 2725 -220 780 -189 1647 86 2407 337 929 990 1681
1874 2156 359 193 878 362 1268 413 l52 7 0 471 0 471 -344 840 c-313 764
-346 840 -368 842 -12 1 -75 -9 -138 -22z"/>
<path d="M9510 13852 l0 -462 23 -1 c101 -5 326 -20 345 -24 10 -1 45 -6 77
-10 446 -51 975 -223 1390 -453 421 -232 830 -567 1120 -917 28 -33 53 -62 56
-65 3 -3 39 -50 81 -105 296 -391 529 -868 657 -1343 49 -182 94 -407 107
-542 3 -30 7 -64 9 -75 2 -11 7 -70 11 -130 3 -61 7 -126 9 -145 2 -19 4 -60
4 -91 l1 -55 457 -1 456 -1 -6 197 c-4 108 -9 210 -11 226 -3 17 -7 57 -10 90
-9 93 -26 228 -31 245 -3 8 -7 35 -10 60 -14 109 -83 418 -125 555 -96 313
-171 507 -300 772 -224 461 -496 857 -830 1206 -178 187 -353 350 -484 452
-21 17 -44 35 -50 41 -29 27 -226 169 -342 246 -625 411 -1350 674 -2089 758
-55 6 -116 13 -135 15 -19 2 -113 7 -207 11 l-173 7 0 -461z"/>
<path d="M9491 11920 c1 -264 4 -480 7 -481 14 -2 80 -7 155 -13 251 -20 551
-119 794 -262 541 -318 909 -890 968 -1504 12 -123 13 -135 14 -180 l1 -46
460 1 460 0 0 110 c0 129 -12 252 -41 425 -66 404 -217 784 -451 1134 -391
585 -978 1010 -1652 1195 -208 57 -494 101 -657 101 l-58 0 0 -480z"/>
<path d="M8081 12064 c-130 -68 -371 -220 -371 -235 0 -6 244 -561 256 -580 1
-3 -68 -75 -154 -161 l-157 -156 -305 114 -305 114 -17 -22 c-73 -92 -285
-479 -273 -498 4 -6 489 -361 512 -374 3 -2 -106 -418 -111 -424 -3 -2 -148
-29 -323 -59 -175 -30 -320 -57 -323 -60 -7 -7 -6 -580 1 -588 4 -3 149 -20
323 -39 173 -18 317 -34 319 -37 2 -2 30 -97 61 -212 l57 -207 -28 -24 c-15
-13 -125 -103 -243 -200 -118 -98 -219 -183 -224 -190 -6 -9 12 -54 58 -141
67 -130 222 -375 236 -375 4 0 120 50 256 111 137 61 267 119 290 129 l41 18
156 -156 155 -157 -114 -305 -114 -305 22 -17 c95 -75 479 -285 498 -273 6 4
361 490 374 512 2 3 418 -106 424 -111 2 -3 29 -148 59 -323 30 -175 57 -320
60 -323 7 -7 580 -6 588 1 3 4 20 149 39 323 18 173 34 317 37 319 2 2 97 30
212 61 l207 57 24 -28 c13 -15 103 -125 200 -243 98 -118 183 -219 190 -224 9
-6 54 12 142 58 135 71 374 222 374 237 0 6 -244 561 -256 580 -1 3 68 75 154
161 l157 156 305 -114 305 -114 17 22 c73 92 285 479 273 498 -4 6 -486 359
-512 374 -1 1 11 50 27 109 l29 107 -172 0 -172 0 -24 -67 c-40 -115 -137
-309 -207 -416 -186 -285 -438 -514 -736 -671 -480 -254 -1043 -301 -1556
-130 -214 71 -458 205 -627 344 -87 72 -257 246 -317 325 -250 330 -387 703
-413 1125 -13 205 29 502 101 718 71 214 205 457 344 627 70 85 243 254 325
316 169 129 384 244 577 309 l113 38 3 172 c2 146 0 171 -12 167 -61 -24 -280
-77 -285 -69 -28 42 -408 492 -416 492 -5 0 -66 -30 -134 -66z"/>
<path d="M9500 9978 l0 -545 528 1 527 1 1 85 c3 199 -83 434 -223 608 -181
225 -457 371 -735 389 l-98 6 0 -545z"/>
</g>
</svg>
